<svg xmlns="http://www.w3.org/2000/svg" width="20" height="20" fill="none" viewBox="0 0 20 20" class="Aiz2_tPtAj"><path stroke="currentColor" stroke-linecap="square" stroke-width="1.074" d="M12.85 11.364h4.9m-2.45 2.45V8.915"></path><path fill="currentColor" fill-rule="evenodd" d="M7.132 14.7h3.181c-.341.537-.933.887-1.59.887s-1.249-.35-1.59-.887zm5.508-.886H3.762l.601-1.226V8.493c0-2.445 1.953-4.433 4.353-4.433 2.101 0 3.86 1.525 4.264 3.546h.88c-.417-2.512-2.562-4.433-5.144-4.433-2.88 0-5.223 2.386-5.223 5.32v3.886L2.353 14.7h3.801c.413 1.052 1.426 1.774 2.57 1.774 1.142 0 2.155-.722 2.568-1.774h1.348v-.886z" clip-rule="evenodd"></path></svg>